<svg xmlns="http://www.w3.org/2000/svg" width="1150" height="110">
<rect fill="#00193d" x="0" y="40" width="239" height="30"/>
<rect fill="#05597f" x="239" y="40" width="19" height="30"/>
<rect fill="#54babf" x="258" y="40" width="6" height="30"/>
<rect fill="#9ec3a1" x="264" y="40" width="221" height="30"/>
<rect fill="#ffb95e" x="485" y="40" width="148" height="30"/>
<rect fill="#fcae4e" x="633" y="40" width="147" height="30"/>
<rect fill="#f37f73" x="780" y="40" width="75" height="30"/>
<rect fill="#b45bbc" x="855" y="40" width="6" height="30"/>
<rect fill="#7e38ce" x="861" y="40" width="19" height="30"/>
<rect fill="#00285f" x="880" y="40" width="274" height="30"/>
<line x1="0" y1="40" x2="0" y2="70" stroke="white" stroke-width="2" />
<line x1="47" y1="40" x2="47" y2="70" stroke="white" stroke-width="0.5" />
<line x1="94" y1="40" x2="94" y2="70" stroke="white" stroke-width="0.5" />
<text x="5" y="65" fill="white" font-size="20" font-family="Liberation Sans">0</text>
<line x1="143" y1="40" x2="143" y2="70" stroke="white" stroke-width="2" />
<line x1="190" y1="40" x2="190" y2="70" stroke="white" stroke-width="0.5" />
<line x1="237" y1="40" x2="237" y2="70" stroke="white" stroke-width="0.5" />
<text x="148" y="65" fill="white" font-size="20" font-family="Liberation Sans">3</text>
<line x1="286" y1="40" x2="286" y2="70" stroke="white" stroke-width="2" />
<line x1="333" y1="40" x2="333" y2="70" stroke="white" stroke-width="0.5" />
<line x1="380" y1="40" x2="380" y2="70" stroke="white" stroke-width="0.5" />
<text x="291" y="65" fill="white" font-size="20" font-family="Liberation Sans">6</text>
<line x1="429" y1="40" x2="429" y2="70" stroke="white" stroke-width="2" />
<line x1="476" y1="40" x2="476" y2="70" stroke="white" stroke-width="0.5" />
<line x1="523" y1="40" x2="523" y2="70" stroke="white" stroke-width="0.5" />
<text x="434" y="65" fill="white" font-size="20" font-family="Liberation Sans">9</text>
<line x1="572" y1="40" x2="572" y2="70" stroke="white" stroke-width="2" />
<line x1="619" y1="40" x2="619" y2="70" stroke="white" stroke-width="0.5" />
<line x1="666" y1="40" x2="666" y2="70" stroke="white" stroke-width="0.5" />
<text x="577" y="65" fill="white" font-size="20" font-family="Liberation Sans">12</text>
<line x1="715" y1="40" x2="715" y2="70" stroke="white" stroke-width="2" />
<line x1="762" y1="40" x2="762" y2="70" stroke="white" stroke-width="0.5" />
<line x1="809" y1="40" x2="809" y2="70" stroke="white" stroke-width="0.5" />
<text x="720" y="65" fill="white" font-size="20" font-family="Liberation Sans">15</text>
<line x1="858" y1="40" x2="858" y2="70" stroke="white" stroke-width="2" />
<line x1="905" y1="40" x2="905" y2="70" stroke="white" stroke-width="0.5" />
<line x1="952" y1="40" x2="952" y2="70" stroke="white" stroke-width="0.5" />
<text x="863" y="65" fill="white" font-size="20" font-family="Liberation Sans">18</text>
<line x1="1001" y1="40" x2="1001" y2="70" stroke="white" stroke-width="2" />
<line x1="1048" y1="40" x2="1048" y2="70" stroke="white" stroke-width="0.5" />
<line x1="1095" y1="40" x2="1095" y2="70" stroke="white" stroke-width="0.5" />
<text x="1006" y="65" fill="white" font-size="20" font-family="Liberation Sans">21</text>
</svg>
